<svg xmlns="http://www.w3.org/2000/svg" color-interpolation-filters="sRGB" style="margin:auto" version="1.0" viewBox="0 0 60 60">
  <g fill="#000" class="icon-text-wrapper icon-svg-group iconsvg">
    <g class="iconsvg-imagesvg">
      <path fill="none" d="M0 0h60v60.004H0z" class="image-rect"/>
      <svg width="60" height="60" class="image-svg-svg primary" style="overflow:visible">
        <svg xmlns="http://www.w3.org/2000/svg" viewBox="1.5 1.5 96.993 97">
          <path d="M54.043 1.5c-11.875 0-23.039 4.623-31.436 13.02l-8.087 8.087C6.123 31.004 1.5 42.168 1.5 54.043s4.623 23.04 13.02 31.437S34.082 98.5 45.957 98.5s23.039-4.623 31.436-13.02l8.08-8.08c8.397-8.397 13.02-19.562 13.02-31.436s-4.623-23.04-13.02-31.437S65.918 1.5 54.043 1.5zm19.541 80.17c-15.235 15.235-40.02 15.235-55.255 0s-15.235-40.02 0-55.255c7.618-7.618 17.623-11.427 27.628-11.427s20.01 3.81 27.627 11.427c15.235 15.235 15.235 40.02 0 55.255zm16.14-19.824c.448-2.553.69-5.16.69-7.81 0-11.875-4.624-23.04-13.021-31.437S57.832 9.587 45.957 9.587c-2.643 0-5.251.241-7.804.69a39.128 39.128 0 0 1 15.89-3.368c10.005 0 20.01 3.81 27.628 11.427 11.744 11.744 14.421 29.166 8.052 43.511z"/>
          <path d="M45.957 20.364a33.491 33.491 0 0 0-18.872 5.796c-.09.056-.18.125-.262.187-8.777 6.086-14.545 16.229-14.545 27.696 0 18.568 15.11 33.68 33.679 33.68 11.467 0 21.61-5.77 27.696-14.546.07-.083.131-.172.186-.262a33.508 33.508 0 0 0 5.797-18.872c0-18.574-15.105-33.679-33.68-33.679zm0 61.97c-15.601 0-28.29-12.69-28.29-28.29 0-4.568 1.097-8.88 3.022-12.703a34.29 34.29 0 0 0-.331 4.616c0 18.567 15.11 33.678 33.678 33.678a33.12 33.12 0 0 0 4.617-.33 28.028 28.028 0 0 1-12.696 3.028zm23.625-12.752a28.107 28.107 0 0 1-15.546 4.672c-15.6 0-28.29-12.69-28.29-28.29a28.124 28.124 0 0 1 4.672-15.546 28.12 28.12 0 0 1 15.539-4.665c15.6 0 28.29 12.69 28.29 28.29a28.12 28.12 0 0 1-4.665 15.54z"/>
        </svg>
      </svg>
    </g>
  </g>
</svg>
