<svg xmlns="http://www.w3.org/2000/svg" color-interpolation-filters="sRGB" style="margin:auto" version="1.0" viewBox="0 0 250 60">
  <g fill="#fff" class="icon-text-wrapper icon-svg-group iconsvg">
    <g class="iconsvg-imagesvg">
      <path fill="none" d="M0 0h60v60.004H0z" class="image-rect"/>
      <svg width="60" height="60.00" class="image-svg-svg primary" style="overflow:visible">
        <svg xmlns="http://www.w3.org/2000/svg" viewBox="1.5 1.5 96.993 97">
          <path d="M54.043 1.5c-11.875 0-23.039 4.623-31.436 13.02l-8.087 8.087C6.123 31.004 1.5 42.168 1.5 54.043s4.623 23.04 13.02 31.437S34.082 98.5 45.957 98.5s23.039-4.623 31.436-13.02l8.08-8.08c8.397-8.397 13.02-19.562 13.02-31.436s-4.623-23.04-13.02-31.437S65.918 1.5 54.043 1.5zm19.541 80.17c-15.235 15.235-40.02 15.235-55.255 0s-15.235-40.02 0-55.255c7.618-7.618 17.623-11.427 27.628-11.427s20.01 3.81 27.627 11.427c15.235 15.235 15.235 40.02 0 55.255zm16.14-19.824c.448-2.553.69-5.16.69-7.81 0-11.875-4.624-23.04-13.021-31.437S57.832 9.587 45.957 9.587c-2.643 0-5.251.241-7.804.69a39.128 39.128 0 0 1 15.89-3.368c10.005 0 20.01 3.81 27.628 11.427 11.744 11.744 14.421 29.166 8.052 43.511z"/>
          <path d="M45.957 20.364a33.491 33.491 0 0 0-18.872 5.796c-.09.056-.18.125-.262.187-8.777 6.086-14.545 16.229-14.545 27.696 0 18.568 15.11 33.68 33.679 33.68 11.467 0 21.61-5.77 27.696-14.546.07-.083.131-.172.186-.262a33.508 33.508 0 0 0 5.797-18.872c0-18.574-15.105-33.679-33.68-33.679zm0 61.97c-15.601 0-28.29-12.69-28.29-28.29 0-4.568 1.097-8.88 3.022-12.703a34.29 34.29 0 0 0-.331 4.616c0 18.567 15.11 33.678 33.678 33.678a33.12 33.12 0 0 0 4.617-.33 28.028 28.028 0 0 1-12.696 3.028zm23.625-12.752a28.107 28.107 0 0 1-15.546 4.672c-15.6 0-28.29-12.69-28.29-28.29a28.124 28.124 0 0 1 4.672-15.546 28.12 28.12 0 0 1 15.539-4.665c15.6 0 28.29 12.69 28.29 28.29a28.12 28.12 0 0 1-4.665 15.54z"/>
        </svg>
      </svg>
    </g>
    <g transform="translate(-42 -94.998)">
      <path d="M129.01 120.35h-5.66v22.64h-4.57v-22.64h-2.56v-4.57h2.61q.11-2.62 1.5-4.69 1.39-2.06 3.67-3.21 2.29-1.14 5.01-1.14v4.68q-2.28-.11-3.83 1.14-1.56 1.26-1.66 3.22h5.49v4.57Zm8.71 22.64h-4.35v-36.2h4.35v36.2Zm32.17-11.54h-22.04q0 1.31.95 2.72.95 1.42 2.2 2.4 2.29 1.79 5.34 1.79 4.84 0 7.89-4.68l4.14 2.45q-2.13 3.43-5.23 5.28-3.1 1.85-6.8 1.85-2.78 0-5.28-1.06-2.51-1.06-4.41-2.97-1.91-1.9-2.97-4.4-1.06-2.51-1.06-5.28 0-2.78 1.06-5.31t2.97-4.44q1.85-1.9 4.38-2.94 2.53-1.03 5.31-1.03 2.77 0 5.3 1.03 2.53 1.04 4.38 2.94 4.03 4.14 4.03 9.58 0 .98-.16 2.07Zm-13.55-11.16q-2.24 0-4.19.98-1.96.98-3.13 2.59-1.17 1.6-1.17 3.4h16.98q0-1.8-1.17-3.4-1.17-1.61-3.13-2.59-1.96-.98-4.19-.98Zm44.79 11.16h-22.04q0 1.31.95 2.72.95 1.42 2.21 2.4 2.28 1.79 5.33 1.79 4.84 0 7.89-4.68l4.14 2.45q-2.12 3.43-5.23 5.28-3.1 1.85-6.8 1.85-2.78 0-5.28-1.06-2.5-1.06-4.41-2.97-1.9-1.9-2.97-4.4-1.06-2.51-1.06-5.28 0-2.78 1.06-5.31 1.07-2.53 2.97-4.44 1.85-1.9 4.38-2.94 2.53-1.03 5.31-1.03t5.31 1.03q2.53 1.04 4.38 2.94 4.03 4.14 4.03 9.58 0 .98-.17 2.07Zm-13.55-11.16q-2.23 0-4.19.98-1.96.98-3.13 2.59-1.17 1.6-1.17 3.4h16.98q0-1.8-1.17-3.4-1.17-1.61-3.13-2.59-1.96-.98-4.19-.98Zm29.77.38h-4.08v22.32h-4.63v-22.32h-4.08v-4.89h4.08v-8.99h4.63v8.99h4.08v4.89Zm16.98 3.22q-.16-.98-.7-1.86-1.04-1.79-4.09-1.79-1.63 0-2.5.38-1.14.43-1.71 1.25-.58.82-.58 1.8 0 1.19.88 2.17.92 1.04 2.99 1.09 3.65.17 5.91.87 2.25.71 3.48 2.45 1.22 1.75 1.22 4.9 0 3.21-2.45 5.55-1.19 1.15-2.8 1.85-1.6.71-3.35.71h-.81q-4.36 0-7.02-2.5-2.18-2.02-2.73-5.66h4.85q.27 1.3 1.09 2.12 1.25 1.2 3.48 1.2.6 0 .87-.06 1.91-.11 2.99-1.06 1.09-.95 1.09-2.37 0-1.96-1.19-2.55-1.2-.6-4.63-.6-4.3 0-6.59-2.72-1.85-2.07-1.85-5.23 0-.71.06-1.09.43-3.54 2.91-5.41 2.48-1.88 6.56-1.88 2.99 0 5.22 1.3 1.58.98 2.72 2.73 1.09 1.74 1.42 4.35l-.11.06h-4.63Zm12.31-12.03q-1.04 0-1.77-.74-.74-.73-.74-1.77 0-1.03.74-1.77.73-.73 1.77-.73 1.03 0 1.76.73.74.74.74 1.77 0 1.04-.74 1.77-.73.74-1.76.74Zm2.34 31.13h-4.58v-27.21h4.58v27.21Zm41.8 0h-4.9v-17.04q0-2.23-1.55-3.75-1.55-1.53-3.78-1.53-2.18 0-3.81 1.53-1.58 1.47-1.58 3.7v17.09h-4.96V125.9q0-2.29-1.52-3.7-1.63-1.53-3.86-1.53-2.18 0-3.71 1.53-1.63 1.63-1.63 3.86v16.93h-4.9v-26.56h4.9v2.01q.93-1.14 2.42-1.9 1.5-.76 2.92-.76 2.39 0 4.38.95 1.98.95 3.45 2.64 1.47-1.69 3.49-2.64 2.01-.95 4.41-.95 2.12 0 3.97.76t3.26 2.17q1.42 1.42 2.21 3.3t.79 3.94v17.04Z" class="tp-name iconsvg-namesvg" data-gra="path-name"/>
    </g>
  </g>
</svg>
